<svg viewBox="0,0,975,500" width="975" height="500" xmlns="http://www.w3.org/2000/svg" xmlns:xlink="http://www.w3.org/1999/xlink"><path fill="lightblue" d="M30,470L34.69543147208122,470L39.390862944162436,470L44.08629441624365,470L48.78172588832487,470L53.477157360406096,470L58.17258883248731,470L62.86802030456853,464.375L67.56345177664974,441.875L72.25888324873097,453.125L76.95431472081219,447.5L81.6497461928934,419.375L86.34517766497461,436.25L91.04060913705584,436.25L95.73604060913706,425L100.43147208121827,436.25L105.12690355329948,436.25L109.82233502538071,441.875L114.51776649746192,436.25L119.21319796954315,441.875L123.90862944162437,453.125L128.60406091370558,458.75L133.2994923857868,458.75L137.994923857868,464.375L142.69035532994923,464.375L147.38578680203045,464.375L152.08121827411168,470L156.7766497461929,470L161.47208121827413,470L166.16751269035532,470L170.86294416243655,453.125L175.55837563451777,458.75L180.25380710659897,447.5L184.9492385786802,441.875L189.64467005076142,419.375L194.34010152284264,368.75L199.03553299492384,374.375L203.7309644670051,385.625L208.4263959390863,385.625L213.12182741116752,391.25L217.81725888324874,391.25L222.51269035532997,396.875L227.20812182741116,385.625L231.9035532994924,391.25L236.5989847715736,396.875L241.2944162436548,396.875L245.98984771573603,402.5L250.68527918781726,402.5L255.38071065989848,396.875L260.0761421319797,396.875L264.7715736040609,396.875L269.46700507614213,396.875L274.16243654822335,396.875L278.8578680203045,396.875L283.5532994923858,385.625L288.24873096446703,340.625L292.94416243654825,346.25L297.6395939086294,357.5L302.33502538071065,357.5L307.0304568527919,357.5L311.7258883248731,346.25L316.4213197969543,340.625L321.11675126903555,340.625L325.81218274111677,340.625L330.50761421319794,346.25L335.20304568527916,329.375L339.8984771573604,335L344.59390862944167,323.75L349.28934010152284,329.375L353.98477157360406,335L358.6802030456853,346.25L363.3756345177665,340.625L368.0710659898477,346.25L372.7664974619289,340.625L377.4619289340102,363.125L382.15736040609136,329.375L386.8527918781726,340.625L391.5482233502538,335L396.24365482233503,335L400.9390862944162,340.625L405.6345177664975,318.125L410.3299492385787,323.75L415.02538071065993,318.125L419.7208121827411,306.875L424.4162436548223,323.75L429.11167512690355,295.625L433.8071065989848,306.875L438.502538071066,306.875L443.1979695431472,312.5L447.89340101522845,312.5L452.5888324873096,312.5L457.28426395939084,318.125L461.97969543147207,329.375L466.67512690355335,329.375L471.3705583756345,329.375L476.06598984771574,323.75L480.76142131979697,306.875L485.45685279187813,306.875L490.15228426395936,301.25L494.8477157360406,278.75L499.5431472081218,290L504.23857868020303,295.625L508.93401015228426,295.625L513.6294416243654,284.375L518.3248730964467,284.375L523.020304568528,284.375L527.715736040609,284.375L532.4111675126903,290L537.1065989847716,267.5L541.8020304568528,273.125L546.4974619289341,239.37500000000003L551.1928934010152,239.37500000000003L555.8883248730965,245L560.5837563451777,228.125L565.2791878172588,239.37500000000003L569.9746192893401,216.875L574.6700507614213,194.375L579.3654822335026,205.625L584.0609137055837,216.875L588.756345177665,222.49999999999997L593.4517766497462,222.49999999999997L598.1472081218274,228.125L602.8426395939086,233.75L607.5380710659898,233.75L612.2335025380711,233.75L616.9289340101523,239.37500000000003L621.6243654822335,233.75L626.3197969543147,222.49999999999997L631.0152284263959,216.875L635.7106598984772,194.375L640.4060913705583,188.75L645.1015228426396,200L649.7969543147208,211.25L654.4923857868021,216.875L659.1878172588833,211.25L663.8832487309644,216.875L668.5786802030457,200L673.2741116751268,200L677.9695431472081,188.75L682.6649746192893,171.875L687.3604060913706,177.5L692.0558375634519,183.125L696.751269035533,183.125L701.4467005076142,183.125L706.1421319796954,188.75L710.8375634517766,177.5L715.5329949238578,183.125L720.2284263959391,188.75L724.9238578680204,183.125L729.6192893401015,183.125L734.3147208121827,183.125L739.0101522842639,183.125L743.7055837563452,171.875L748.4010152284264,126.875L753.0964467005076,81.875L757.7918781725889,98.75L762.4873096446701,115.625L767.1827411167512,81.875L771.8781725888324,81.875L776.5736040609137,59.375L781.269035532995,59.375L785.9644670050761,70.625L790.6598984771574,76.25L795.3553299492386,87.5L800.0507614213199,59.375L804.746192893401,65L809.4416243654822,76.25L814.1370558375635,81.875L818.8324873096446,87.5L823.5279187817259,98.75L828.2233502538071,104.375L832.9187817258884,110L837.6142131979695,110L842.3096446700507,110L847.005076142132,110L851.7005076142132,104.375L856.3959390862944,115.625L861.0913705583756,121.25L865.7868020304569,132.5L870.4822335025381,143.75L875.1776649746192,138.125L879.8730964467005,143.75L884.5685279187817,143.75L889.263959390863,149.375L893.9593908629441,143.75L898.6548223350254,149.375L903.3502538071067,155L908.0456852791878,155L912.741116751269,160.625L917.4365482233502,171.875L922.1319796954315,183.125L926.8274111675128,194.375L931.5228426395939,143.75L936.2182741116752,149.375L940.9137055837563,166.25L945.6091370558376,166.25L950.3045685279187,166.25L955,183.125L955,470L950.3045685279187,470L945.6091370558376,470L940.9137055837563,470L936.2182741116752,470L931.5228426395939,470L926.8274111675128,470L922.1319796954315,470L917.4365482233502,470L912.741116751269,470L908.0456852791878,470L903.3502538071067,470L898.6548223350254,470L893.9593908629441,470L889.263959390863,470L884.5685279187817,470L879.8730964467005,470L875.1776649746192,470L870.4822335025381,470L865.7868020304569,470L861.0913705583756,470L856.3959390862944,470L851.7005076142132,470L847.005076142132,470L842.3096446700507,470L837.6142131979695,470L832.9187817258884,470L828.2233502538071,470L823.5279187817259,470L818.8324873096446,470L814.1370558375635,470L809.4416243654822,470L804.746192893401,470L800.0507614213199,470L795.3553299492386,470L790.6598984771574,470L785.9644670050761,470L781.269035532995,470L776.5736040609137,470L771.8781725888324,470L767.1827411167512,470L762.4873096446701,470L757.7918781725889,470L753.0964467005076,470L748.4010152284264,470L743.7055837563452,470L739.0101522842639,470L734.3147208121827,470L729.6192893401015,470L724.9238578680204,470L720.2284263959391,470L715.5329949238578,470L710.8375634517766,470L706.1421319796954,470L701.4467005076142,470L696.751269035533,470L692.0558375634519,470L687.3604060913706,470L682.6649746192893,470L677.9695431472081,470L673.2741116751268,470L668.5786802030457,470L663.8832487309644,470L659.1878172588833,470L654.4923857868021,470L649.7969543147208,470L645.1015228426396,470L640.4060913705583,470L635.7106598984772,470L631.0152284263959,470L626.3197969543147,470L621.6243654822335,470L616.9289340101523,470L612.2335025380711,470L607.5380710659898,470L602.8426395939086,470L598.1472081218274,470L593.4517766497462,470L588.756345177665,470L584.0609137055837,470L579.3654822335026,470L574.6700507614213,470L569.9746192893401,470L565.2791878172588,470L560.5837563451777,470L555.8883248730965,470L551.1928934010152,470L546.4974619289341,470L541.8020304568528,470L537.1065989847716,470L532.4111675126903,470L527.715736040609,470L523.020304568528,470L518.3248730964467,470L513.6294416243654,470L508.93401015228426,470L504.23857868020303,470L499.5431472081218,470L494.8477157360406,470L490.15228426395936,470L485.45685279187813,470L480.76142131979697,470L476.06598984771574,470L471.3705583756345,470L466.67512690355335,470L461.97969543147207,470L457.28426395939084,470L452.5888324873096,470L447.89340101522845,470L443.1979695431472,470L438.502538071066,470L433.8071065989848,470L429.11167512690355,470L424.4162436548223,470L419.7208121827411,470L415.02538071065993,470L410.3299492385787,470L405.6345177664975,470L400.9390862944162,470L396.24365482233503,470L391.5482233502538,470L386.8527918781726,470L382.15736040609136,470L377.4619289340102,470L372.7664974619289,470L368.0710659898477,470L363.3756345177665,470L358.6802030456853,470L353.98477157360406,470L349.28934010152284,470L344.59390862944167,470L339.8984771573604,470L335.20304568527916,470L330.50761421319794,470L325.81218274111677,470L321.11675126903555,470L316.4213197969543,470L311.7258883248731,470L307.0304568527919,470L302.33502538071065,470L297.6395939086294,470L292.94416243654825,470L288.24873096446703,470L283.5532994923858,470L278.8578680203045,470L274.16243654822335,470L269.46700507614213,470L264.7715736040609,470L260.0761421319797,470L255.38071065989848,470L250.68527918781726,470L245.98984771573603,470L241.2944162436548,470L236.5989847715736,470L231.9035532994924,470L227.20812182741116,470L222.51269035532997,470L217.81725888324874,470L213.12182741116752,470L208.4263959390863,470L203.7309644670051,470L199.03553299492384,470L194.34010152284264,470L189.64467005076142,470L184.9492385786802,470L180.25380710659897,470L175.55837563451777,470L170.86294416243655,470L166.16751269035532,470L161.47208121827413,470L156.7766497461929,470L152.08121827411168,470L147.38578680203045,470L142.69035532994923,470L137.994923857868,470L133.2994923857868,470L128.60406091370558,470L123.90862944162437,470L119.21319796954315,470L114.51776649746192,470L109.82233502538071,470L105.12690355329948,470L100.43147208121827,470L95.73604060913706,470L91.04060913705584,470L86.34517766497461,470L81.6497461928934,470L76.95431472081219,470L72.25888324873097,470L67.56345177664974,470L62.86802030456853,470L58.17258883248731,470L53.477157360406096,470L48.78172588832487,470L44.08629441624365,470L39.390862944162436,470L34.69543147208122,470L30,470Z"/><g transform="translate(0,470)" fill="none" font-size="10" font-family="sans-serif" text-anchor="middle"><path class="domain" stroke="currentColor" d="M30.5,0.5H955.5"/><g class="tick" opacity="1" transform="translate(31.673857868020306,0)"><line stroke="currentColor" y2="6"/><text fill="currentColor" y="9" dy="0.71em">October</text></g><g class="tick" opacity="1" transform="translate(177.23223350253807,0)"><line stroke="currentColor" y2="6"/><text fill="currentColor" y="9" dy="0.71em">November</text></g><g class="tick" opacity="1" transform="translate(318.29082064297796,0)"><line stroke="currentColor" y2="6"/><text fill="currentColor" y="9" dy="0.71em">December</text></g><g class="tick" opacity="1" transform="translate(463.84919627749576,0)"><line stroke="currentColor" y2="6"/><text fill="currentColor" y="9" dy="0.71em">2019</text></g><g class="tick" opacity="1" transform="translate(609.4075719120135,0)"><line stroke="currentColor" y2="6"/><text fill="currentColor" y="9" dy="0.71em">February</text></g><g class="tick" opacity="1" transform="translate(740.8796531302876,0)"><line stroke="currentColor" y2="6"/><text fill="currentColor" y="9" dy="0.71em">March</text></g><g class="tick" opacity="1" transform="translate(886.2423857868021,0)"><line stroke="currentColor" y2="6"/><text fill="currentColor" y="9" dy="0.71em">April</text></g></g><g transform="translate(30,0)" fill="none" font-size="10" font-family="sans-serif" text-anchor="end"><g class="tick" opacity="1" transform="translate(0,470.5)"><line stroke="currentColor" x2="-6"/><text fill="currentColor" x="-9" dy="0.32em">0</text></g><g class="tick" opacity="1" transform="translate(0,414.25)"><line stroke="currentColor" x2="-6"/><text fill="currentColor" x="-9" dy="0.32em">10</text></g><g class="tick" opacity="1" transform="translate(0,358)"><line stroke="currentColor" x2="-6"/><text fill="currentColor" x="-9" dy="0.32em">20</text></g><g class="tick" opacity="1" transform="translate(0,301.75)"><line stroke="currentColor" x2="-6"/><text fill="currentColor" x="-9" dy="0.32em">30</text></g><g class="tick" opacity="1" transform="translate(0,245.5)"><line stroke="currentColor" x2="-6"/><text fill="currentColor" x="-9" dy="0.32em">40</text></g><g class="tick" opacity="1" transform="translate(0,189.25)"><line stroke="currentColor" x2="-6"/><text fill="currentColor" x="-9" dy="0.32em">50</text></g><g class="tick" opacity="1" transform="translate(0,133)"><line stroke="currentColor" x2="-6"/><text fill="currentColor" x="-9" dy="0.32em">60</text></g><g class="tick" opacity="1" transform="translate(0,76.75)"><line stroke="currentColor" x2="-6"/><text fill="currentColor" x="-9" dy="0.32em">70</text></g><g class="tick" opacity="1" transform="translate(0,20.5)"><line stroke="currentColor" x2="-6"/><text fill="currentColor" x="-9" dy="0.32em">80</text><text fill="currentColor" x="3" dy="0.32em" text-anchor="start" font-weight="bold">$ snow_depth</text></g></g></svg>